<?xml version="1.0" encoding="UTF-8" standalone="no"?>
<svg
   xmlns:dc="http://purl.org/dc/elements/1.1/"
   xmlns:cc="http://creativecommons.org/ns#"
   xmlns:rdf="http://www.w3.org/1999/02/22-rdf-syntax-ns#"
   xmlns:svg="http://www.w3.org/2000/svg"
   xmlns="http://www.w3.org/2000/svg"
   id="svg8"
   version="1.1"
   viewBox="0 0 805.55822 132.4097"
   height="132.4097mm"
   width="805.55823mm">
  <defs
     id="defs2" />
  <metadata
     id="metadata5">
    <rdf:RDF>
      <cc:Work
         rdf:about="">
        <dc:format>image/svg+xml</dc:format>
        <dc:type
           rdf:resource="http://purl.org/dc/dcmitype/StillImage" />
        <dc:title></dc:title>
      </cc:Work>
    </rdf:RDF>
  </metadata>
  <g
     transform="translate(389.79085,6.2459253)"
     id="layer1">
    <g
       id="g2385">
      <path
         style="fill:#241c1c;fill-opacity:1;stroke:#000000;stroke-width:1;stroke-miterlimit:4;stroke-dasharray:none;stroke-opacity:1"
         id="path815"
         d="m -277.43452,123.13095 -42.32196,-21.09862 -41.37351,22.9027 6.98777,-46.770412 -34.56687,-32.271221 46.64064,-7.807086 20.01001,-42.8474068 21.83773,41.9453678 46.93374,5.790067 -33.14419,33.730749 z" />
      <path
         style="fill:none;fill-opacity:1;stroke:#000000;stroke-width:1;stroke-miterlimit:4;stroke-dasharray:none;stroke-opacity:1"
         id="path815-3"
         d="m 390.55315,122.77564 -42.32196,-21.09862 -41.37351,22.90269 6.98777,-46.770408 -34.56687,-32.271221 46.64064,-7.807087 20.01001,-42.847406 21.83773,41.945367 46.93374,5.790068 -33.14419,33.730749 z" />
      <path
         style="fill:#241c1c;fill-opacity:1;stroke:#000000;stroke-width:1;stroke-miterlimit:4;stroke-dasharray:none;stroke-opacity:1"
         id="path815-6"
         d="m 222.73174,123.53159 -42.32196,-21.09862 -41.37351,22.90269 6.98777,-46.770408 -34.56687,-32.27122 46.64064,-7.807087 20.01001,-42.847406 21.83773,41.945367 46.93373,5.790068 -33.14418,33.730749 z" />
      <path
         style="fill:#241c1c;fill-opacity:1;stroke:#000000;stroke-width:1;stroke-miterlimit:4;stroke-dasharray:none;stroke-opacity:1"
         id="path815-7"
         d="M 52.642451,123.5316 10.320486,102.43298 -31.053021,125.33567 -24.065249,78.56526 -58.632123,46.294039 -11.991477,38.486953 8.0185258,-4.3604534 29.856258,37.584914 76.789994,43.374981 43.64581,77.10573 Z" />
      <path
         style="fill:#241c1c;fill-opacity:1;stroke:#000000;stroke-width:1;stroke-miterlimit:4;stroke-dasharray:none;stroke-opacity:1"
         id="path815-5"
         d="m -118.95875,123.5316 -42.32196,-21.09862 -41.37351,22.90269 6.98777,-46.77041 -34.56687,-32.271221 46.64064,-7.807086 20.01001,-42.8474064 21.83773,41.9453674 46.933734,5.790067 -33.144184,33.730749 z" />
    </g>
  </g>
</svg>
